<?xml version="1.0" standalone="no"?>
<!DOCTYPE svg PUBLIC "-//W3C//DTD SVG 20010904//EN"
 "http://www.w3.org/TR/2001/REC-SVG-20010904/DTD/svg10.dtd">
<svg version="1.0" xmlns="http://www.w3.org/2000/svg"
 width="700.000000pt" height="700.000000pt" viewBox="0 0 700.000000 700.000000"
 preserveAspectRatio="xMidYMid meet">
<metadata>
Created by potrace 1.11, written by Peter Selinger 2001-2013
</metadata>
<g transform="translate(0.000000,700.000000) scale(0.100000,-0.100000)"
fill="#000000" stroke="none">
<path d="M2509 6543 c16 -43 136 -366 266 -718 130 -352 381 -1019 556 -1482
175 -463 319 -845 319 -848 0 -5 1052 -2805 1142 -3037 l29 -78 930 0 c511 0
929 3 929 6 0 4 -990 2643 -2033 5419 l-304 810 -931 3 -932 2 29 -77z"/>
<path d="M2361 5567 c-118 -243 -623 -1285 -1123 -2315 -499 -1030 -908 -1875
-908 -1878 0 -2 168 -4 373 -4 l373 0 729 1463 c401 804 817 1640 925 1857
l198 395 -170 455 c-93 250 -173 458 -176 462 -4 3 -103 -192 -221 -435z"/>
<path d="M1848 2665 c-623 -1249 -1134 -2273 -1136 -2277 -2 -5 279 -8 625 -8
l628 0 780 1559 779 1560 -263 703 c-146 387 -268 710 -272 718 -5 10 -389
-749 -1141 -2255z"/>
</g>
</svg>
