<?xml version="1.0" encoding="UTF-8" standalone="no"?>
<!DOCTYPE svg PUBLIC "-//W3C//DTD SVG 1.1//EN" "http://www.w3.org/Graphics/SVG/1.1/DTD/svg11.dtd">
<svg width="100%" height="100%" viewBox="0 0 250 250" version="1.1" xmlns="http://www.w3.org/2000/svg" xmlns:xlink="http://www.w3.org/1999/xlink" xml:space="preserve" xmlns:serif="http://www.serif.com/" style="fill-rule:evenodd;clip-rule:evenodd;stroke-linecap:round;stroke-linejoin:round;stroke-miterlimit:1.5;">
    <g transform="matrix(1.15256,0,0,1.15256,-7.05404,-14.487)">
        <g transform="matrix(0.867635,0,0,0.867635,6.12033,12.5695)">
            <path d="M220,218.329L194.501,218.33L194.5,194.5L210.88,194.515L220,218.329Z" style="fill:white;"/>
            <path d="M220,218.329L194.501,218.33L194.5,194.5L210.88,194.515L220,218.329ZM203.501,209.33L206.916,209.33L204.687,203.509L203.5,203.508L203.501,209.33Z" style="fill:rgb(255,54,23);fill-opacity:0;"/>
        </g>
        <g transform="matrix(0.867635,0,0,0.867635,6.12033,12.5695)">
            <path d="M158.904,218.339L170.493,218.326L170.499,194.518L149.997,194.501L158.904,218.339Z" style="fill:white;"/>
            <path d="M158.904,218.339L170.493,218.326L170.499,194.518L149.997,194.501L158.904,218.339Z" style="fill:rgb(255,54,23);fill-opacity:0;"/>
        </g>
        <g transform="matrix(0.867635,0,0,0.867635,6.12033,12.5695)">
            <path d="M201.715,170.506L194.507,170.505L194.501,151.65L201.715,170.506Z" style="fill:white;"/>
            <path d="M201.715,170.506L194.507,170.505L194.501,151.65L201.715,170.506Z" style="fill:rgb(255,54,23);fill-opacity:0;"/>
        </g>
        <g transform="matrix(0.867635,0,0,0.867635,6.12033,12.5695)">
            <path d="M141.165,11.814L81.718,12L141.107,170.769L170.504,170.511C170.504,159.556 170.51,135.196 170.51,125.01C170.51,119.435 174.463,114.494 179.859,113.323L141.165,11.814Z" style="fill:white;"/>
            <path d="M141.165,11.814L81.718,12L141.107,170.769L170.504,170.511C170.504,159.556 170.51,135.196 170.51,125.01C170.51,119.435 174.463,114.494 179.859,113.323L141.165,11.814ZM168.677,109.255L134.971,20.833L94.678,20.959L147.329,161.714L161.505,161.59L161.51,125.01C161.51,118.854 164.269,113.15 168.677,109.255Z" style="fill:rgb(255,54,23);fill-opacity:0;"/>
        </g>
        <g transform="matrix(-0.636564,0,0,0.636564,148.818,73.4141)">
            <path d="M92.737,0.779L69.976,61.23L140.281,202L193.3,202L92.737,0.779Z" style="fill:white;"/>
            <path d="M92.737,0.779L69.976,61.23L140.281,202L193.3,202L92.737,0.779ZM180.071,193.822L145.338,193.822L78.887,60.771L93.792,21.185L180.071,193.822Z" style="fill:rgb(255,34,0);fill-opacity:0;"/>
        </g>
        <g transform="matrix(-0.636564,0,0,0.636564,123.048,44.4141)">
            <path d="M70.565,-2.94L56.744,34.267L140.281,202L170.056,202L70.565,-2.94Z" style="fill:white;"/>
            <path d="M70.565,-2.94L56.744,34.267L140.281,202L170.056,202L70.565,-2.94ZM156.995,193.822L145.344,193.822L65.644,33.793L71.566,17.849L156.995,193.822Z" style="fill:rgb(255,34,0);fill-opacity:0;"/>
        </g>
        <path d="M137.996,202L66.219,202L107.151,120.012L122.393,160.526C122.393,160.526 123.742,160.459 114.569,160.504C107.183,160.54 104.166,166.957 104.166,170.696C104.166,176.49 108.318,181.333 114.56,181.333C122.403,181.333 130.193,181.325 130.193,181.325L137.996,202Z" style="fill:white;"/>
        <path d="M122.46,160.516C122.42,160.526 122.442,160.522 122.393,160.526L122.387,160.511C122.071,160.493 120.578,160.475 114.569,160.504C107.183,160.54 104.166,166.957 104.166,170.696C104.166,176.49 108.318,181.333 114.56,181.333C122.403,181.333 130.193,181.325 130.193,181.325L137.996,202L66.219,202L107.151,120.012L122.387,160.511L122.46,160.516ZM114.864,155.297L106.479,133.011L74.637,196.794L130.467,196.794L126.594,186.533L114.56,186.539C105.228,186.539 98.96,179.358 98.96,170.696C98.96,165.072 103.434,155.353 114.544,155.298L114.864,155.297Z" style="fill:rgb(255,34,0);fill-opacity:0;"/>
    </g>
    <g transform="matrix(2.875,0,0,2.875,-450,-450)">
        <path d="M220,200L220,240" style="fill:none;stroke:white;stroke-width:3.13px;"/>
        <path d="M240,220L200,220" style="fill:none;stroke:white;stroke-width:3.13px;"/>
    </g>
</svg>
