<?xml version="1.0" encoding="UTF-8" standalone="no"?>
<!DOCTYPE svg PUBLIC "-//W3C//DTD SVG 1.1//EN" "http://www.w3.org/Graphics/SVG/1.1/DTD/svg11.dtd">
<svg width="100%" height="100%" viewBox="0 0 250 250" version="1.1" xmlns="http://www.w3.org/2000/svg" xmlns:xlink="http://www.w3.org/1999/xlink" xml:space="preserve" xmlns:serif="http://www.serif.com/" style="fill-rule:evenodd;clip-rule:evenodd;stroke-linecap:round;stroke-linejoin:round;stroke-miterlimit:1.5;">
    <g id="Layer1" transform="matrix(0.999348,0,0,0.999565,0.00651749,-1.00957)">
        <g id="Front">
            <g transform="matrix(1.00065,0,0,1.00043,-0.00652174,31.0231)">
                <circle cx="125" cy="75" r="25" style="fill:none;stroke:white;stroke-width:9px;"/>
            </g>
            <g transform="matrix(1.00065,0,0,1.00043,-0.00652174,31.0231)">
                <path d="M75,190C75,190 75.333,125 125,125C174.667,125 175,190 175,190" style="fill:none;stroke:white;stroke-width:9px;"/>
            </g>
        </g>
        <g id="Back-Right" serif:id="Back Right">
            <g transform="matrix(1.00065,0,0,1.00043,65.0359,1.01001)">
                <circle cx="125" cy="75" r="25" style="fill:none;stroke:white;stroke-width:9px;"/>
            </g>
            <g transform="matrix(1.00065,0,0,1.00043,65.0359,1.01001)">
                <path d="M87.733,144.983C95.089,133.831 106.693,125 125,125C174.667,125 175,190 175,190" style="fill:none;stroke:white;stroke-width:9px;"/>
            </g>
        </g>
        <g id="Back-Left" serif:id="Back Left">
            <g transform="matrix(-1.00065,0,0,1.00043,185.114,1.01001)">
                <circle cx="125" cy="75" r="25" style="fill:none;stroke:white;stroke-width:9px;"/>
            </g>
            <g transform="matrix(-1.00065,0,0,1.00043,185.114,1.01001)">
                <path d="M87.733,144.983C95.089,133.831 106.693,125 125,125C174.667,125 175,190 175,190" style="fill:none;stroke:white;stroke-width:9px;"/>
            </g>
        </g>
    </g>
</svg>
