<?xml version="1.0" encoding="UTF-8" standalone="no"?>
<!DOCTYPE svg PUBLIC "-//W3C//DTD SVG 1.1//EN" "http://www.w3.org/Graphics/SVG/1.1/DTD/svg11.dtd">
<svg width="100%" height="100%" viewBox="0 0 600 600" version="1.1" xmlns="http://www.w3.org/2000/svg" xmlns:xlink="http://www.w3.org/1999/xlink" xml:space="preserve" xmlns:serif="http://www.serif.com/" style="fill-rule:evenodd;clip-rule:evenodd;stroke-linecap:round;stroke-linejoin:round;stroke-miterlimit:1.5;">
    <g id="Layer2" transform="matrix(1.15822,0,0,1.15822,-73.8159,-47.4664)">
        <clipPath id="_clip1">
            <path d="M388,64.889L241.222,64.889L255,103L81,463.046L146,463.046L109,535.111L212,535.111L329.389,300L417.556,535.111L564.5,535.111L388,64.889Z"/>
        </clipPath>
        <g clip-path="url(#_clip1)">
            <rect x="0" y="0" width="600" height="600" style="fill:url(#_Linear2);"/>
        </g>
        <path d="M388,64.889L564.5,535.111L109,535.111L146,461.874L81,461.874L255.176,103L285,183L417.556,535.111L212,535.111L329.389,300L285,183L146,461.874L285,183L241.222,64.889L388,64.889Z" style="fill:none;stroke:white;stroke-opacity:0.75;stroke-width:8.63px;"/>
    </g>
    <defs>
        <linearGradient id="_Linear2" x1="0" y1="0" x2="1" y2="0" gradientUnits="userSpaceOnUse" gradientTransform="matrix(529,-437.111,437.111,529,35.5,502)"><stop offset="0" style="stop-color:rgb(0,101,135);stop-opacity:1"/><stop offset="0.5" style="stop-color:rgb(18,35,134);stop-opacity:1"/><stop offset="1" style="stop-color:rgb(147,79,125);stop-opacity:1"/></linearGradient>
    </defs>
</svg>
