<?xml version="1.0" encoding="UTF-8" standalone="no"?>
<!DOCTYPE svg PUBLIC "-//W3C//DTD SVG 1.1//EN" "http://www.w3.org/Graphics/SVG/1.1/DTD/svg11.dtd">
<svg width="100%" height="100%" viewBox="0 0 250 250" version="1.1" xmlns="http://www.w3.org/2000/svg" xmlns:xlink="http://www.w3.org/1999/xlink" xml:space="preserve" xmlns:serif="http://www.serif.com/" style="fill-rule:evenodd;clip-rule:evenodd;stroke-linecap:round;stroke-linejoin:round;stroke-miterlimit:1.5;">
    <g transform="matrix(1.35294,0,0,1.35294,-44.1176,50.5882)">
        <path d="M127.989,69.702C127.023,69.897 126.023,70 125,70C116.721,70 110,63.279 110,55C110,46.721 116.721,40 125,40C133.279,40 140,46.721 140,55C140,56.78 139.689,58.487 139.12,60.071" style="fill:none;stroke:white;stroke-width:6.65px;"/>
    </g>
    <g transform="matrix(1.35294,0,0,1.35294,-44.1176,-44.1176)">
        <path d="M127.989,69.702C127.023,69.897 126.023,70 125,70C116.721,70 110,63.279 110,55C110,46.721 116.721,40 125,40C133.279,40 140,46.721 140,55C140,56.78 139.689,58.487 139.12,60.071" style="fill:none;stroke:white;stroke-width:6.65px;"/>
    </g>
    <g transform="matrix(1.35294,0,0,1.35294,-44.1176,145.294)">
        <path d="M127.989,69.702C127.023,69.897 126.023,70 125,70C116.721,70 110,63.279 110,55C110,46.721 116.721,40 125,40C133.279,40 140,46.721 140,55C140,56.78 139.689,58.487 139.12,60.071" style="fill:none;stroke:white;stroke-width:6.65px;"/>
    </g>
</svg>
