<?xml version="1.0" encoding="UTF-8" standalone="no"?>
<!DOCTYPE svg PUBLIC "-//W3C//DTD SVG 1.1//EN" "http://www.w3.org/Graphics/SVG/1.1/DTD/svg11.dtd">
<svg width="100%" height="100%" viewBox="0 0 250 250" version="1.1" xmlns="http://www.w3.org/2000/svg" xmlns:xlink="http://www.w3.org/1999/xlink" xml:space="preserve" xmlns:serif="http://www.serif.com/" style="fill-rule:evenodd;clip-rule:evenodd;stroke-linecap:round;stroke-linejoin:round;stroke-miterlimit:1.5;">
    <g transform="matrix(1.37897,0,0,0.947632,-59.7817,-9.31741)">
        <path d="M197,220L71,220C71,220 84.691,148.72 94.021,100.145C99.034,74.047 115.377,56 133.999,56L134.001,56C152.623,56 168.966,74.047 173.979,100.145C183.309,148.72 197,220 197,220Z" style="fill:none;stroke:white;stroke-width:7.61px;"/>
    </g>
    <g transform="matrix(1.25,0,0,1.25,-125,170)">
        <path d="M180,35C180.269,46 188.029,56 201,56C212.045,56 222,47.333 222,35" style="fill:none;stroke:white;stroke-width:7.2px;"/>
    </g>
    <g transform="matrix(-0.892857,-1.09343e-16,1.09343e-16,-0.892857,304.464,60)">
        <path d="M180,35C180.269,46 188.029,56 201,56C212.045,56 222,47.333 222,35" style="fill:none;stroke:white;stroke-width:10.08px;"/>
    </g>
</svg>
