<?xml version="1.0" encoding="UTF-8" standalone="no"?>
<!DOCTYPE svg PUBLIC "-//W3C//DTD SVG 1.1//EN" "http://www.w3.org/Graphics/SVG/1.1/DTD/svg11.dtd">
<svg width="100%" height="100%" viewBox="0 0 250 250" version="1.1" xmlns="http://www.w3.org/2000/svg" xmlns:xlink="http://www.w3.org/1999/xlink" xml:space="preserve" xmlns:serif="http://www.serif.com/" style="fill-rule:evenodd;clip-rule:evenodd;stroke-linecap:round;stroke-linejoin:round;stroke-miterlimit:1.5;">
    <g transform="matrix(1.15991,0,0,1.15991,-25.7953,-25.9572)">
        <g id="Layer2" transform="matrix(1.09639,0,0,1.09639,6.58943,-10.5077)">
            <g transform="matrix(0.912081,0,0,0.912081,-6.01009,9.58386)">
                <path d="M101.017,132.647C100.355,130.379 100,127.981 100,125.5C100,111.426 111.426,100 125.5,100C129.531,100 133.344,100.937 136.734,102.605" style="fill:none;stroke:white;stroke-width:7.76px;"/>
            </g>
            <g transform="matrix(0.912081,0,0,0.912081,-6.01009,9.58386)">
                <path d="M144,197.568L144,219L106,219L106,197.568C99.275,195.809 92.917,193.139 87.066,189.7L72.04,204.726L45.17,177.856L60.223,162.803C56.778,156.915 54.112,150.517 52.367,143.75L31.25,143.75L31.25,105.75L52.498,105.75C54.288,98.998 56.998,92.618 60.486,86.752L45.524,71.79L72.394,44.92L87.513,60.039C93.386,56.64 99.761,54.015 106.5,52.303L106.5,31L144.5,31L144.5,52.565C151.159,54.355 157.452,57.04 163.248,60.486L178.46,45.274L205.33,72.144L189.961,87.513C193.317,93.313 195.92,99.603 197.633,106.25L219.25,106.25L219.25,144.25L197.502,144.25" style="fill:none;stroke:white;stroke-width:7.76px;"/>
            </g>
        </g>
        <g id="Layer3">
            <path d="M195.18,215L157.211,177.032C143.916,183.134 130.466,177.157 120.892,167.583C111.318,158.009 109.2,143.784 114.54,132.15L124.295,145.618L133.994,155.317L142.382,159.993L157.85,144.525L153.227,136.19L143.475,126.438L130.008,116.683C141.641,111.343 155.866,113.461 165.44,123.035C175.014,132.609 180.991,146.059 174.889,159.354L225.258,209.723C233.194,218.47 215.956,235.648 207.581,227.401L203.617,223.437" style="fill:none;stroke:white;stroke-width:7.76px;"/>
        </g>
    </g>
</svg>
