<?xml version="1.0" encoding="UTF-8" standalone="no"?>
<!DOCTYPE svg PUBLIC "-//W3C//DTD SVG 1.1//EN" "http://www.w3.org/Graphics/SVG/1.1/DTD/svg11.dtd">
<svg width="100%" height="100%" viewBox="0 0 250 250" version="1.1" xmlns="http://www.w3.org/2000/svg" xmlns:xlink="http://www.w3.org/1999/xlink" xml:space="preserve" xmlns:serif="http://www.serif.com/" style="fill-rule:evenodd;clip-rule:evenodd;stroke-linecap:round;stroke-linejoin:round;stroke-miterlimit:1.5;">
    <g transform="matrix(1.27523,0,0,1.27523,-34.4036,-34.4034)">
        <g transform="matrix(0.800498,0.800498,-0.725238,0.725238,141.604,-19.8857)">
            <path d="M62.151,117.136C62.792,110.523 65.461,104.314 69.762,99.567C74.731,94.082 81.472,91 88.5,91L88.5,91C95.528,91 102.269,94.082 107.238,99.567C112.208,105.053 115,112.492 115,120.25L115,178.752C115,186.509 112.208,193.948 107.239,199.433C102.269,204.919 95.53,208 88.502,208C88.501,208 88.501,208 88.5,208C81.472,208 74.731,204.918 69.762,199.433C64.792,193.947 62,186.508 62,178.75C62,167.938 62,155.331 62,143.102" style="fill:none;stroke:white;stroke-width:6.53px;"/>
        </g>
        <g transform="matrix(0.800498,0.800498,-0.725238,0.725238,183.554,-88.6494)">
            <path d="M115,158.073L115,120.25C115,112.492 112.208,105.053 107.238,99.567C102.269,94.082 95.528,91 88.5,91C88.5,91 88.5,91 88.5,91C81.472,91 74.731,94.082 69.762,99.567C64.792,105.053 62,112.492 62,120.25L62,178.75C62,186.508 64.792,193.947 69.762,199.433C74.731,204.918 81.472,208 88.5,208C88.5,208 88.5,208 88.5,208C95.528,208 102.269,204.918 107.238,199.433C111.465,194.768 114.116,188.689 114.815,182.204" style="fill:none;stroke:white;stroke-width:6.53px;"/>
        </g>
    </g>
</svg>
